<?xml version="1.0" encoding="UTF-8" standalone="no"?>
<!-- Created with Inkscape (http://www.inkscape.org/) -->

<svg
   width="210mm"
   height="297mm"
   viewBox="0 0 210 297"
   version="1.1"
   id="svg1"
   xmlns:inkscape="http://www.inkscape.org/namespaces/inkscape"
   xmlns:sodipodi="http://sodipodi.sourceforge.net/DTD/sodipodi-0.dtd"
   xmlns="http://www.w3.org/2000/svg"
   xmlns:svg="http://www.w3.org/2000/svg">
  <sodipodi:namedview
     id="namedview1"
     pagecolor="#ffffff"
     bordercolor="#000000"
     borderopacity="0.25"
     inkscape:showpageshadow="2"
     inkscape:pageopacity="0.0"
     inkscape:pagecheckerboard="0"
     inkscape:deskcolor="#d1d1d1"
     inkscape:document-units="mm" />
  <defs
     id="defs1">
    <inkscape:path-effect
       effect="spiro"
       id="path-effect1"
       is_visible="true"
       lpeversion="1" />
  </defs>
  <g
     inkscape:label="Layer 1"
     inkscape:groupmode="layer"
     id="layer1">
    <path
       style="fill:#ff5959;fill-opacity:1;stroke:#ff5959;stroke-width:5.29167"
       d="m 0,183.40925 c 7.5554228,-3.76596 16.296411,-4.43045 24.724167,-3.94078 8.427757,0.48968 16.767062,2.05997 25.197879,2.49377 18.951048,0.97511 37.903417,-3.86767 55.077954,-11.93788 12.52349,-5.88471 24.20553,-13.45835 36.80755,-19.17296 10.65421,-4.83134 21.99526,-8.31869 33.64312,-9.4056 11.6541,-1.08749 23.57477,0.27167 34.54933,4.34104 14.67513,5.44155 27.37988,15.65484 36.7162,28.21681 11.95227,16.08172 18.4992,36.19356 17.86103,56.22032 -0.63816,20.02676 -8.54283,39.81682 -22.20208,54.4764 -12.20377,13.09751 -28.62116,21.88707 -45.94275,26.40803 -19.38212,5.05876 -39.7208,4.96056 -59.72118,3.84589 -20.00038,-1.11467 -40.022505,-3.21295 -60.019382,-2.03712 -15.637519,0.9195 -31.165236,3.83828 -46.828486,3.63811 -7.831625,-0.10008 -15.694547,-0.99218 -23.1907165,-3.26194 -7.49616952,-2.26976 -14.6296072,-5.95394 -20.4192855,-11.22879 -10.352599,-9.43202 -15.756335,-23.41957 -16.97657,-37.37128 -1.220235,-13.95171 1.396643,-27.96796 5.038689,-41.49108 2.117771,-7.8634 4.615702,-15.70177 8.654547,-22.77325 C -12.991138,193.35746 -7.2883775,187.0421 0,183.40925 Z"
       id="path1"
       inkscape:path-effect="#path-effect1"
       inkscape:original-d="M 0,183.40925 C 8.5615102,170.14494 33.281363,182.44458 49.922046,181.96224 66.562729,181.4799 86.640682,174.00365 105,170.02436 c 18.35932,-3.97929 24.53837,-12.78197 36.80755,-19.17296 12.26918,-6.39099 22.42874,-6.2704 33.64312,-9.4056 11.21437,-3.13521 23.03288,2.89403 34.54933,4.34104 11.51644,1.44702 24.47746,18.81121 36.7162,28.21681 12.23873,9.4056 -2.89404,73.79781 -4.34105,110.69672 -1.44702,36.89889 -30.6285,17.60535 -45.94275,26.40803 -15.31425,8.80269 -79.82704,1.20584 -119.740562,1.80877 -39.91352,0.60291 -60.292325,-7.23508 -90.438488,-10.85262 -30.146163,-3.61754 -7.958587,-52.57491 -11.937881,-78.86236 C -29.663824,196.91474 -8.5615102,196.67357 0,183.40925 Z" />
  </g>
</svg>
