<?xml version="1.0" encoding="UTF-8" standalone="no"?>
<!-- Created with Inkscape (http://www.inkscape.org/) -->

<svg
   width="210mm"
   height="297mm"
   viewBox="0 0 210 297"
   version="1.1"
   id="svg1"
   inkscape:version="1.3 (0e150ed6c4, 2023-07-21)"
   sodipodi:docname="logo.svg"
   xmlns:inkscape="http://www.inkscape.org/namespaces/inkscape"
   xmlns:sodipodi="http://sodipodi.sourceforge.net/DTD/sodipodi-0.dtd"
   xmlns:xlink="http://www.w3.org/1999/xlink"
   xmlns="http://www.w3.org/2000/svg"
   xmlns:svg="http://www.w3.org/2000/svg">
  <sodipodi:namedview
     id="namedview1"
     pagecolor="#000000"
     bordercolor="#000000"
     borderopacity="0.25"
     inkscape:showpageshadow="2"
     inkscape:pageopacity="0.0"
     inkscape:pagecheckerboard="0"
     inkscape:deskcolor="#707070"
     inkscape:document-units="mm"
     showgrid="true"
     inkscape:export-bgcolor="#61616100"
     inkscape:zoom="1"
     inkscape:cx="386.5"
     inkscape:cy="559.5"
     inkscape:window-width="1920"
     inkscape:window-height="1017"
     inkscape:window-x="-8"
     inkscape:window-y="-8"
     inkscape:window-maximized="1"
     inkscape:current-layer="layer1">
    <inkscape:grid
       id="grid1"
       units="mm"
       originx="0"
       originy="0"
       spacingx="0.99999998"
       spacingy="1"
       empcolor="#0099e5"
       empopacity="0.30196078"
       color="#0099e5"
       opacity="0.14901961"
       empspacing="5"
       dotted="false"
       gridanglex="30"
       gridanglez="30"
       visible="true" />
  </sodipodi:namedview>
  <defs
     id="defs1">
    <color-profile
       name="Agfa-:-Swop-Standard"
       xlink:href="../../../../../../../../../Windows/system32/spool/drivers/color/RSWOP.icm"
       id="color-profile1" />
  </defs>
  <g
     inkscape:label="Layer 1"
     inkscape:groupmode="layer"
     id="layer1">
    <path
       id="path4"
       style="fill:none;stroke:#ff5959;stroke-width:7.7733;stroke-opacity:1"
       d="M 110,97.258407 A 46.11319,49.427226 0 0 0 76.033107,113.37139 l 16.953539,9.01451 A 28.887795,30.182609 0 0 1 110,116.50307 a 28.887795,30.182609 0 0 1 28.8877,30.18312 28.887795,30.182609 0 0 1 -0.007,0.1036 l 16.39993,8.72039 a 46.11319,49.427226 0 0 0 0.83275,-8.82394 A 46.11319,49.427226 0 0 0 110,97.258407 Z M 65.443669,134.29247 A 46.11319,49.427226 0 0 0 63.886658,146.68619 46.11319,49.427226 0 0 0 110,196.11334 a 46.11319,49.427226 0 0 0 36.14261,-18.9101 l -16.30376,-8.66951 A 28.887795,30.182609 0 0 1 110,176.86869 a 28.887795,30.182609 0 0 1 -28.887693,-30.1825 28.887795,30.182609 0 0 1 0.268006,-3.91964 z" />
    <circle
       style="fill:#ff5959;fill-opacity:1;stroke:#ff5959;stroke-width:5.29167;stroke-opacity:1"
       id="path5"
       cx="110.00001"
       cy="146.68588"
       r="12.5" />
  </g>
</svg>
