<?xml version="1.0" encoding="UTF-8" standalone="no"?>
<!-- Created with Inkscape (http://www.inkscape.org/) -->

<svg
   width="40.74585mm"
   height="40.785336mm"
   viewBox="0 0 40.74585 40.785336"
   version="1.1"
   id="svg1"
   inkscape:version="1.3 (0e150ed6c4, 2023-07-21)"
   sodipodi:docname="crown.svg"
   xmlns:inkscape="http://www.inkscape.org/namespaces/inkscape"
   xmlns:sodipodi="http://sodipodi.sourceforge.net/DTD/sodipodi-0.dtd"
   xmlns="http://www.w3.org/2000/svg"
   xmlns:svg="http://www.w3.org/2000/svg">
  <sodipodi:namedview
     id="namedview1"
     pagecolor="#ffffff"
     bordercolor="#000000"
     borderopacity="0.25"
     inkscape:showpageshadow="2"
     inkscape:pageopacity="0.0"
     inkscape:pagecheckerboard="0"
     inkscape:deskcolor="#d1d1d1"
     inkscape:document-units="mm"
     inkscape:zoom="1.4142136"
     inkscape:cx="397.04046"
     inkscape:cy="447.95215"
     inkscape:window-width="1920"
     inkscape:window-height="1017"
     inkscape:window-x="-8"
     inkscape:window-y="-8"
     inkscape:window-maximized="1"
     inkscape:current-layer="layer1" />
  <defs
     id="defs1" />
  <g
     inkscape:label="Layer 1"
     inkscape:groupmode="layer"
     id="layer1"
     transform="translate(-98.276171,-83.1658)">
    <g
       id="g11"
       style="opacity:1">
      <path
         style="opacity:1;fill:#000000;fill-opacity:1;stroke:none;stroke-width:5.29167;stroke-dasharray:none"
         d="m 98.276192,123.91163 -5e-6,-40.745835 40.745833,6e-6 v 40.785329 z"
         id="path10" />
      <path
         id="rect1"
         style="color:#000000;opacity:1;fill:#f9f9f9;stroke-width:0.122941;-inkscape-stroke:none"
         d="m 98.276172,99.541211 v 1.296049 l 1.09244,1.88205 -1.09244,0.74724 v 0.78859 l 1.912028,1.30844 -1.912028,0.0139 v 0.65061 l 3.960998,0.0279 0.0103,-0.0558 0.0222,-5.2e-4 -0.0196,-0.0134 1.12655,-6.209954 -0.64286,0.439764 -2.8267,1.93477 z m 4.182178,1.851569 -0.74001,4.07882 -1.48415,-2.55643 z m -2.762627,1.89084 1.112077,1.91616 -1.955953,-1.33894 z m -1.419551,3.63905 v 0.73122 h 3.887098 v -0.73122 z" />
      <path
         id="path7"
         style="color:#000000;opacity:1;fill:#f9f9f9;stroke-width:0.122941;-inkscape-stroke:none"
         d="m 138.95379,99.423905 -0.27905,0.497128 -1.33997,2.391067 -3.41323,-2.335774 0.13901,0.766364 0.98805,5.44308 -0.0202,0.0139 h 0.0222 l 0.0103,0.0563 3.961,-0.0279 v -0.65061 h -0.007 l -1.90531,-0.0139 1.91255,-1.30844 v -0.78859 l -1.14826,-0.78548 1.08986,-1.94458 0.0584,0.10077 v -1.296049 z m -4.11396,1.969385 2.17558,1.4888 -1.43919,2.5678 z m 2.71456,1.85726 0.89194,0.61029 -2.00143,1.36995 z m -2.41949,3.67212 v 0.73122 h 3.88711 v -0.73122 z" />
      <path
         id="path8"
         style="color:#000000;opacity:1;fill:#f9f9f9;stroke-width:0.122941;-inkscape-stroke:none"
         d="m 114.1951,83.165983 0.48059,2.646867 -0.0202,0.01395 h 0.0222 l 0.0103,0.05633 3.961,-0.0279 3.961,0.0279 0.0103,-0.05581 0.0222,-5.16e-4 -0.0196,-0.01344 0.48007,-2.647384 h -0.66094 l -0.35088,1.932699 -1.1219,-1.932699 h -0.75189 l 0.96376,1.660881 -1.95595,-1.338937 0.47077,-0.321944 h -2.09289 l 0.47025,0.321944 -2.00143,1.369942 0.94775,-1.691886 h -0.74517 l -1.07126,1.910995 -0.34674,-1.910995 z m 4.45399,0.716235 1.91254,1.308448 -1.91978,0.01395 -1.90531,-0.01395 z m -3.8871,2.667538 v 0.731221 h 7.7742 v -0.731221 z" />
      <path
         id="path9"
         style="color:#000000;opacity:1;fill:#f9f9f9;stroke-width:0.122941;-inkscape-stroke:none"
         d="m 118.58088,119.8361 -0.27906,0.49764 -1.33997,2.39107 -3.41323,-2.33578 0.13901,0.76637 0.50333,2.77192 0.66146,5.2e-4 -0.38551,-2.12235 2.17558,1.48879 -0.35605,0.63511 0.74569,5.1e-4 0.14935,-0.26665 0.39067,0.26717 2.15129,0.002 0.34572,-0.23668 0.13746,0.23719 0.75241,5.2e-4 -0.35192,-0.60616 2.22467,-1.52187 -0.38654,2.12958 0.66094,5.2e-4 0.64337,-3.54707 -0.64285,0.44028 -2.8267,1.93477 z m 0.01,1.31309 1.15084,1.98231 -1.09244,0.74776 -1.14825,-0.786 z" />
    </g>
  </g>
</svg>
